<?xml version="1.0" encoding="utf-8"?>
<!-- Generator: Adobe Illustrator 22.0.1, SVG Export Plug-In . SVG Version: 6.00 Build 0)  -->
<svg version="1.1" id="Layer_1" xmlns="http://www.w3.org/2000/svg" xmlns:xlink="http://www.w3.org/1999/xlink" x="0px" y="0px"
	 viewBox="0 0 26 26" style="enable-background:new 0 0 26 26;" xml:space="preserve">
<style type="text/css">
	.st0{fill:#10A1DC;}
	.st1{fill:#077299;}
</style>
<title>json-logger</title>
<path class="st0" d="M5.6,19.5c0,0.8,0.3,1.4,0.8,1.7c0.5,0.4,1.3,0.5,2.3,0.6v1.6c-1.7,0-3-0.4-3.9-1s-1.4-1.6-1.4-2.8v-3.5
	c0-0.8-0.3-1.4-0.8-1.7c-0.6-0.3-1.4-0.5-2.5-0.5v-1.6c1.2,0,2-0.2,2.5-0.6c0.5-0.4,0.8-0.9,0.8-1.7V6.4c0-1.2,0.5-2.1,1.4-2.8
	s2.3-1,3.9-1v1.6C6.6,4.3,5.6,5,5.6,6.5V10c0,1.7-1,2.7-3,3v0.1c2,0.3,3,1.3,3,3V19.5z"/>
<path class="st0" d="M23.4,12.9c-2-0.3-3-1.3-3-3V6.5c0-1.5-1-2.3-3-2.3V2.6c1.6,0,2.9,0.3,3.9,1c0.9,0.7,1.4,1.6,1.4,2.8V10
	c0,0.8,0.3,1.3,0.8,1.7c0.5,0.4,1.4,0.5,2.5,0.6v1.6c-1.1,0-1.9,0.2-2.5,0.5c-0.6,0.3-0.8,0.9-0.8,1.7v3.5c0,1.2-0.5,2.1-1.4,2.8
	c-0.9,0.7-2.2,1-3.9,1v-1.6c1,0,1.7-0.2,2.3-0.6c0.5-0.4,0.8-0.9,0.8-1.7V16c0-0.9,0.2-1.6,0.7-2c0.5-0.5,1.2-0.8,2.3-0.9V12.9z"/>
<path class="st1" d="M11.3,15.2c0-0.4,0.2-0.8,0.5-1.1c0.3-0.3,0.7-0.4,1.2-0.4c0.6,0,1.1,0.2,1.4,0.6c0.4,0.4,0.6,0.9,0.6,1.6
	c0,0.7-0.1,1.2-0.3,1.7s-0.4,0.9-0.7,1.2c-0.3,0.3-0.6,0.6-1,0.8c-0.4,0.2-0.7,0.4-1.1,0.5L11.1,19c0.6-0.2,1.1-0.6,1.4-1
	s0.5-1,0.5-1.4c-0.5,0.1-0.9,0.1-1.2-0.1C11.5,16.1,11.3,15.7,11.3,15.2z"/>
<path class="st1" d="M11.4,7.7c0-0.5,0.2-0.9,0.5-1.2c0.3-0.3,0.7-0.4,1.2-0.4c0.5,0,0.9,0.1,1.2,0.4c0.3,0.3,0.5,0.7,0.5,1.2
	c0,0.5-0.2,0.8-0.5,1.1c-0.3,0.3-0.7,0.5-1.2,0.5c-0.5,0-0.9-0.2-1.2-0.5C11.6,8.5,11.4,8.2,11.4,7.7z"/>
</svg>
